<?xml version="1.0" encoding="UTF-8" standalone="no"?>
<!-- Created with Inkscape (http://www.inkscape.org/) -->

<svg
   xmlns:dc="http://purl.org/dc/elements/1.1/"
   xmlns:cc="http://creativecommons.org/ns#"
   xmlns:rdf="http://www.w3.org/1999/02/22-rdf-syntax-ns#"
   xmlns:svg="http://www.w3.org/2000/svg"
   xmlns="http://www.w3.org/2000/svg"
   xmlns:sodipodi="http://sodipodi.sourceforge.net/DTD/sodipodi-0.dtd"
   xmlns:inkscape="http://www.inkscape.org/namespaces/inkscape"
   width="82.697037mm"
   height="80.20237mm"
   viewBox="0 0 82.697039 80.202372"
   version="1.1"
   id="svg8"
   inkscape:version="0.92.5 (2060ec1f9f, 2020-04-08)"
   sodipodi:docname="hero-img.svg">
  <defs
     id="defs2">
    <linearGradient
       id="a"
       x1="-1292.1"
       x2="-1290"
       gradientTransform="matrix(1.2975984,6.0962485,6.2468307,-1.2663193,-3237.7453,-3891.1723)"
       gradientUnits="userSpaceOnUse">
      <stop
         stop-color="#f4f4f4"
         offset="0"
         id="stop2" />
      <stop
         stop-color="#cdcdcd"
         offset="1"
         id="stop4" />
    </linearGradient>
  </defs>
  <sodipodi:namedview
     id="base"
     pagecolor="#ffffff"
     bordercolor="#666666"
     borderopacity="1.0"
     inkscape:pageopacity="0.0"
     inkscape:pageshadow="2"
     inkscape:zoom="0.7"
     inkscape:cx="-3.0870404"
     inkscape:cy="120.69166"
     inkscape:document-units="mm"
     inkscape:current-layer="layer1"
     showgrid="false"
     showguides="true"
     inkscape:guide-bbox="true"
     inkscape:window-width="1848"
     inkscape:window-height="1016"
     inkscape:window-x="72"
     inkscape:window-y="27"
     inkscape:window-maximized="1" />
  <metadata
     id="metadata5">
    <rdf:RDF>
      <cc:Work
         rdf:about="">
        <dc:format>image/svg+xml</dc:format>
        <dc:type
           rdf:resource="http://purl.org/dc/dcmitype/StillImage" />
        <dc:title></dc:title>
      </cc:Work>
    </rdf:RDF>
  </metadata>
  <g
     inkscape:label="Layer 1"
     inkscape:groupmode="layer"
     id="layer1"
     transform="translate(-62.484643,-94.305882)">
    <path
       inkscape:connector-curvature="0"
       style="fill:#4165a5;stroke-width:0.59189332"
       d="m 145.09387,171.14749 c 0,4.51284 -8.22225,3.1756 -11.03471,3.1756 H 67.792182 c -3.823832,0 -5.164748,-1.87342 -5.164748,-5.43025 v -65.04966 c 0,-2.79786 -1.19772,-9.537298 3.344504,-9.537298 h 75.529972 c 4.57219,0 3.59136,5.388742 3.59136,8.342738 v 46.53518 c 4.4e-4,7.32006 4.4e-4,14.64189 4.4e-4,21.96135"
       id="path9"
       inkscape:export-xdpi="96"
       inkscape:export-ydpi="96" />
    <path
       inkscape:connector-curvature="0"
       style="fill:#ffffff;stroke-width:0.59189332"
       d="m 143.44019,169.87865 c 0,4.46315 -8.54999,3.07327 -11.29055,3.07327 H 67.925794 c -4.726164,0 -3.666251,-5.49692 -3.666251,-8.60117 v -46.35452 c 0,-2.77156 -1.396641,-10.64767 3.232461,-10.64767 h 72.276546 c 4.41101,0 3.66744,4.41694 3.66744,7.37034 v 55.15975"
       id="path11"
       inkscape:export-xdpi="96"
       inkscape:export-ydpi="96" />
    <path
       inkscape:connector-curvature="0"
       style="fill:#f4f4f4;stroke-width:0.59189332"
       d="m 140.59419,166.87322 c 0,4.34912 -8.92208,2.90371 -11.5464,2.90371 H 80.201361 c -2.660265,0 -10.034114,1.33081 -12.233625,-0.85136 -2.463142,-2.44353 -0.858595,-10.85817 -0.858595,-13.79171 v -41.54405 c 0,-4.33274 6.566781,-3.14694 9.416979,-3.14694 h 54.64989 c 2.09166,0 6.85678,-0.83673 8.56018,0.84901 1.78489,1.76408 0.8586,6.75171 0.8586,8.89119 v 18.87112 c -4.4e-4,9.27358 -4.4e-4,18.54602 -4.4e-4,27.81903"
       id="path13"
       inkscape:export-xdpi="96"
       inkscape:export-ydpi="96" />
    <path
       inkscape:connector-curvature="0"
       style="fill:url(#a);stroke-width:0.59189332"
       d="m 87.046154,153.99426 c 0,-1.32263 -0.09586,-13.01636 0.09466,-13.01636 h 7.811234 c 1.230673,0 7.001772,-0.8303 7.907102,0 0.90533,0.8303 -0.54824,13.01636 -0.0947,13.01636 H 87.046154 m 18.775246,0 c 0,-1.32263 -0.0959,-13.01636 0.0941,-13.01636 h 7.81243 c 1.22947,0 7.00058,-0.8303 7.90531,0 0.90473,0.8303 -0.54824,13.01636 -0.0941,13.01636 H 105.8214 M 87.046153,138.08707 c 0,-1.32438 -0.09586,-13.02746 0.09466,-13.02746 h 7.811234 c 1.230673,0 7.001763,-0.83147 7.907103,0 0.90533,0.83145 -0.54944,13.02746 -0.0947,13.02746 H 87.046153 m 18.775247,0 c 0,-1.32438 -0.0959,-13.02746 0.0941,-13.02746 h 7.81243 c 1.22947,0 7.00057,-0.83147 7.9053,0 0.90474,0.83145 -0.54823,13.02746 -0.0941,13.02746 H 105.8214 m 18.77525,-26.14617 c -3.96344,0 -2.96284,0.83791 -2.96284,4.60231 0,3.09082 1.36548,5.62496 -2.07909,5.62496 h -11.65424 c -3.44456,0 -2.07908,-2.53414 -2.07908,-5.62496 v -4.4719 c 0,-0.12397 -2.72078,-0.36312 -2.96284,-0.13038 -1.06771,1.02442 0,8.12112 0,9.73027 0,1.24485 -15.812406,0.26078 -15.812406,0.36661 v -9.59987 c 0,-1.00278 -1.813054,-0.49701 -2.654873,-0.49701 -0.668064,0 -0.307968,3.02241 -0.307968,3.59952 0,1.49746 0.983219,6.62775 -0.862191,6.62775 H 71.372155 c -2.103646,0 -2.296573,2.89083 -0.612339,2.89083 h 11.848966 c 2.627312,0 1.474531,2.73356 1.474531,4.98353 0,1.00513 0.474534,8.04395 -0.397243,8.04395 H 72.961725 c -0.381665,0 -2.789684,-0.29529 -3.064698,0 -0.34931,0.37539 -0.263629,2.89084 0.397243,2.89084 h 10.724344 c 3.835817,0 3.064699,0.23974 3.064699,3.99828 0,1.36705 0.972435,8.08781 0,9.01808 -1.107846,1.06126 -8.591341,0 -10.189896,0 h -3.893333 c -0.0683,0 -0.325345,2.65344 -0.103059,2.892 0.943076,1.01389 8.721357,0 10.188696,0 3.518859,0 3.997587,-0.81452 3.997587,2.64994 v 5.78284 c 0,1.98217 -0.170157,1.7933 1.920306,1.7933 2.133004,0 1.042536,-5.78341 1.042536,-7.57614 0,-3.70768 1.031153,-2.64994 4.751331,-2.64994 h 10.693189 c 0.79808,0 0.36788,7.36508 0.36788,8.43278 0,2.35464 2.96285,2.78558 2.96285,0.73089 0,-0.86013 -0.0995,-9.16367 0.0941,-9.16367 h 9.94424 c 2.82144,0 5.7741,-1.28638 5.7741,1.79391 0,0.9987 -0.34272,8.43217 0.30797,8.43217 0.84062,0 2.65547,0.50463 2.65547,-0.49699 v -6.12898 c 0,-3.56094 -0.61175,-3.60011 2.98621,-3.60011 h 10.73812 c 0.0629,0 0.32295,-2.65695 0.10127,-2.892 -0.27501,-0.28886 -2.60933,0 -2.9868,0 h -10.73933 c -0.2097,0 -0.0995,-7.38263 -0.0995,-8.03752 0,-3.13172 -1.21809,-4.97884 2.15997,-4.97884 h 10.8256 c 1.30497,0 0.83942,-0.62214 0.83942,-1.87402 0,-1.52084 -0.68124,-1.01682 -2.16055,-1.01682 h -10.82561 c -1.81126,0 -0.83883,-5.55013 -0.83883,-7.0277 0,-1.41619 -0.94307,-6.00035 0.83883,-6.00035 h 11.54758 c 2.07669,0 1.86039,-2.89083 1.05153,-2.89083 h -9.5434 c -2.65787,0 -3.89514,0.90278 -3.89514,-1.79393 v -8.43277"
       id="path15"
       inkscape:export-xdpi="96"
       inkscape:export-ydpi="96" />
    <flowRoot
       xml:space="preserve"
       id="flowRoot30"
       style="font-style:normal;font-weight:normal;font-size:40px;line-height:1.25;font-family:sans-serif;letter-spacing:0px;word-spacing:0px;fill:#000000;fill-opacity:1;stroke:none"
       transform="scale(0.26458333)"><flowRegion
         id="flowRegion32"><rect
           id="rect34"
           width="49.497475"
           height="44.446712"
           x="190.91884"
           y="266.92047" /></flowRegion><flowPara
         id="flowPara36">1</flowPara></flowRoot>    <text
       xml:space="preserve"
       style="font-style:normal;font-weight:normal;font-size:6.85834789px;line-height:1.25;font-family:sans-serif;letter-spacing:0px;word-spacing:0px;fill:#000000;fill-opacity:1;stroke:none;stroke-width:0.17145871"
       x="74.115829"
       y="120.42396"
       id="text40"
       inkscape:export-xdpi="96"
       inkscape:export-ydpi="96"
       transform="scale(1.0145174,0.98569037)"><tspan
         sodipodi:role="line"
         id="tspan38"
         x="74.115829"
         y="120.42396"
         style="stroke-width:0.17145871">1</tspan></text>
    <text
       xml:space="preserve"
       style="font-style:normal;font-weight:normal;font-size:6.85834789px;line-height:1.25;font-family:sans-serif;letter-spacing:0px;word-spacing:0px;fill:#000000;fill-opacity:1;stroke:none;stroke-width:0.17145871"
       x="91.964951"
       y="120.32584"
       id="text40-3"
       inkscape:export-xdpi="96"
       inkscape:export-ydpi="96"
       transform="scale(1.0145174,0.98569037)"><tspan
         sodipodi:role="line"
         id="tspan38-6"
         x="91.964951"
         y="120.32584"
         style="stroke-width:0.17145871">1</tspan></text>
    <text
       xml:space="preserve"
       style="font-style:normal;font-weight:normal;font-size:6.85834789px;line-height:1.25;font-family:sans-serif;letter-spacing:0px;word-spacing:0px;fill:#000000;fill-opacity:1;stroke:none;stroke-width:0.17145871"
       x="73.782486"
       y="136.08003"
       id="text40-7"
       inkscape:export-xdpi="96"
       inkscape:export-ydpi="96"
       transform="scale(1.0145174,0.98569037)"><tspan
         sodipodi:role="line"
         id="tspan38-5"
         x="73.782486"
         y="136.08003"
         style="stroke-width:0.17145871">0</tspan></text>
    <text
       xml:space="preserve"
       style="font-style:normal;font-weight:normal;font-size:6.85834789px;line-height:1.25;font-family:sans-serif;letter-spacing:0px;word-spacing:0px;fill:#000000;fill-opacity:1;stroke:none;stroke-width:0.17145871"
       x="91.788269"
       y="135.90685"
       id="text40-3-3"
       inkscape:export-xdpi="96"
       inkscape:export-ydpi="96"
       transform="scale(1.0145174,0.98569037)"><tspan
         sodipodi:role="line"
         id="tspan38-6-5"
         x="91.788269"
         y="135.90685"
         style="stroke-width:0.17145871">1</tspan></text>
    <text
       xml:space="preserve"
       style="font-style:normal;font-weight:normal;font-size:6.85834789px;line-height:1.25;font-family:sans-serif;letter-spacing:0px;word-spacing:0px;fill:#000000;fill-opacity:1;stroke:none;stroke-width:0.17145871"
       x="91.791756"
       y="151.15535"
       id="text40-3-3-6"
       inkscape:transform-center-x="-4.9199956"
       inkscape:transform-center-y="-8.5360472"
       inkscape:export-xdpi="96"
       inkscape:export-ydpi="96"
       transform="scale(1.0145174,0.98569037)"><tspan
         sodipodi:role="line"
         id="tspan38-6-5-2"
         x="91.791756"
         y="151.15535"
         style="stroke-width:0.17145871">1</tspan></text>
    <text
       xml:space="preserve"
       style="font-style:normal;font-weight:normal;font-size:6.85834789px;line-height:1.25;font-family:sans-serif;letter-spacing:0px;word-spacing:0px;fill:#000000;fill-opacity:1;stroke:none;stroke-width:0.17145871"
       x="74.125404"
       y="151.50174"
       id="text40-3-3-6-9"
       inkscape:transform-center-x="-4.919991"
       inkscape:transform-center-y="-8.5360514"
       inkscape:export-xdpi="96"
       inkscape:export-ydpi="96"
       transform="scale(1.0145174,0.98569037)"><tspan
         sodipodi:role="line"
         id="tspan38-6-5-2-1"
         x="74.125404"
         y="151.50174"
         style="stroke-width:0.17145871">1</tspan></text>
    <text
       xml:space="preserve"
       style="font-style:normal;font-weight:normal;font-size:6.85834789px;line-height:1.25;font-family:sans-serif;letter-spacing:0px;word-spacing:0px;fill:#000000;fill-opacity:1;stroke:none;stroke-width:0.17145871"
       x="73.779007"
       y="166.22369"
       id="text40-3-3-6-9-2"
       inkscape:transform-center-x="-4.9199922"
       inkscape:transform-center-y="-8.5360604"
       inkscape:export-xdpi="96"
       inkscape:export-ydpi="96"
       transform="scale(1.0145174,0.98569037)"><tspan
         sodipodi:role="line"
         id="tspan38-6-5-2-1-7"
         x="73.779007"
         y="166.22369"
         style="stroke-width:0.17145871">1</tspan></text>
    <text
       xml:space="preserve"
       style="font-style:normal;font-weight:normal;font-size:6.85834789px;line-height:1.25;font-family:sans-serif;letter-spacing:0px;word-spacing:0px;fill:#000000;fill-opacity:1;stroke:none;stroke-width:0.17145871"
       x="91.272156"
       y="166.39688"
       id="text40-3-3-6-9-0"
       inkscape:transform-center-x="-4.919991"
       inkscape:transform-center-y="-8.5360558"
       inkscape:export-xdpi="96"
       inkscape:export-ydpi="96"
       transform="scale(1.0145174,0.98569037)"><tspan
         sodipodi:role="line"
         id="tspan38-6-5-2-1-9"
         x="91.272156"
         y="166.39688"
         style="stroke-width:0.17145871">1</tspan></text>
    <text
       xml:space="preserve"
       style="font-style:normal;font-weight:normal;font-size:6.85834789px;line-height:1.25;font-family:sans-serif;letter-spacing:0px;word-spacing:0px;fill:#000000;fill-opacity:1;stroke:none;stroke-width:0.17145871"
       x="109.69324"
       y="135.73724"
       id="text40-7-0"
       inkscape:export-xdpi="96"
       inkscape:export-ydpi="96"
       transform="scale(1.0145174,0.98569037)"><tspan
         sodipodi:role="line"
         id="tspan38-5-6"
         x="109.69324"
         y="135.73724"
         style="stroke-width:0.17145871">0</tspan></text>
    <text
       xml:space="preserve"
       style="font-style:normal;font-weight:normal;font-size:6.85834789px;line-height:1.25;font-family:sans-serif;letter-spacing:0px;word-spacing:0px;fill:#000000;fill-opacity:1;stroke:none;stroke-width:0.17145871"
       x="127.99043"
       y="151.15535"
       id="text40-3-3-2"
       inkscape:export-xdpi="96"
       inkscape:export-ydpi="96"
       transform="scale(1.0145174,0.98569037)"><tspan
         sodipodi:role="line"
         id="tspan38-6-5-6"
         x="127.99043"
         y="151.15535"
         style="stroke-width:0.17145871">1</tspan></text>
    <text
       xml:space="preserve"
       style="font-style:normal;font-weight:normal;font-size:6.85834789px;line-height:1.25;font-family:sans-serif;letter-spacing:0px;word-spacing:0px;fill:#000000;fill-opacity:1;stroke:none;stroke-width:0.17145871"
       x="127.88265"
       y="135.56406"
       id="text40-7-1"
       inkscape:export-xdpi="96"
       inkscape:export-ydpi="96"
       transform="scale(1.0145174,0.98569037)"><tspan
         sodipodi:role="line"
         id="tspan38-5-8"
         x="127.88265"
         y="135.56406"
         style="stroke-width:0.17145871">0</tspan></text>
    <text
       xml:space="preserve"
       style="font-style:normal;font-weight:normal;font-size:6.85834789px;line-height:1.25;font-family:sans-serif;letter-spacing:0px;word-spacing:0px;fill:#000000;fill-opacity:1;stroke:none;stroke-width:0.17145871"
       x="109.98117"
       y="151.15535"
       id="text40-3-3-2-7"
       inkscape:export-xdpi="96"
       inkscape:export-ydpi="96"
       transform="scale(1.0145174,0.98569037)"><tspan
         sodipodi:role="line"
         id="tspan38-6-5-6-9"
         x="109.98117"
         y="151.15535"
         style="stroke-width:0.17145871">1</tspan></text>
    <text
       xml:space="preserve"
       style="font-style:normal;font-weight:normal;font-size:6.85834789px;line-height:1.25;font-family:sans-serif;letter-spacing:0px;word-spacing:0px;fill:#000000;fill-opacity:1;stroke:none;stroke-width:0.17145871"
       x="109.8045"
       y="166.3969"
       id="text40-3-3-2-7-2"
       inkscape:export-xdpi="96"
       inkscape:export-ydpi="96"
       transform="scale(1.0145174,0.98569037)"><tspan
         sodipodi:role="line"
         id="tspan38-6-5-6-9-0"
         x="109.8045"
         y="166.3969"
         style="stroke-width:0.17145871">1</tspan></text>
    <text
       xml:space="preserve"
       style="font-style:normal;font-weight:normal;font-size:6.85834789px;line-height:1.25;font-family:sans-serif;letter-spacing:0px;word-spacing:0px;fill:#000000;fill-opacity:1;stroke:none;stroke-width:0.17145871"
       x="127.70946"
       y="166.56674"
       id="text40-7-0-2"
       inkscape:export-xdpi="96"
       inkscape:export-ydpi="96"
       transform="scale(1.0145174,0.98569037)"><tspan
         sodipodi:role="line"
         id="tspan38-5-6-3"
         x="127.70946"
         y="166.56674"
         style="stroke-width:0.17145871">0</tspan></text>
    <text
       xml:space="preserve"
       style="font-style:normal;font-weight:normal;font-size:6.85834789px;line-height:1.25;font-family:sans-serif;letter-spacing:0px;word-spacing:0px;fill:#000000;fill-opacity:1;stroke:none;stroke-width:0.17145871"
       x="127.87918"
       y="120.14583"
       id="text40-7-1-7"
       inkscape:export-xdpi="96"
       inkscape:export-ydpi="96"
       transform="scale(1.0145174,0.98569037)"><tspan
         sodipodi:role="line"
         id="tspan38-5-8-5"
         x="127.87918"
         y="120.14583"
         style="stroke-width:0.17145871">0</tspan></text>
    <text
       xml:space="preserve"
       style="font-style:normal;font-weight:normal;font-size:6.85834789px;line-height:1.25;font-family:sans-serif;letter-spacing:0px;word-spacing:0px;fill:#000000;fill-opacity:1;stroke:none;stroke-width:0.17145871"
       x="109.69324"
       y="120.32249"
       id="text40-7-1-7-9"
       inkscape:export-xdpi="96"
       inkscape:export-ydpi="96"
       transform="scale(1.0145174,0.98569037)"><tspan
         sodipodi:role="line"
         id="tspan38-5-8-5-2"
         x="109.69324"
         y="120.32249"
         style="stroke-width:0.17145871">0</tspan></text>
    <flowRoot
       xml:space="preserve"
       id="flowRoot708"
       style="font-style:normal;font-weight:normal;font-size:40px;line-height:1.25;font-family:sans-serif;letter-spacing:0px;word-spacing:0px;fill:#000000;fill-opacity:1;stroke:none"
       transform="matrix(0.26458333,0,0,0.26458333,62.484643,94.305882)"><flowRegion
         id="flowRegion710"><rect
           id="rect712"
           width="218.57143"
           height="40"
           x="11.428572"
           y="4.5556464" /></flowRegion><flowPara
         id="flowPara714">QUICA</flowPara></flowRoot>    <text
       xml:space="preserve"
       style="font-style:normal;font-weight:normal;font-size:10.58333302px;line-height:1.25;font-family:sans-serif;letter-spacing:0px;word-spacing:0px;fill:#000000;fill-opacity:1;stroke:none;stroke-width:0.26458332"
       x="84.936432"
       y="104.35588"
       id="text718"><tspan
         sodipodi:role="line"
         id="tspan716"
         x="84.936432"
         y="104.35588"
         style="font-weight:bold;stroke-width:0.26458332">QUICA</tspan></text>
  </g>
</svg>
